<svg width="66" height="72" viewBox="0 0 66 72" fill="none" xmlns="http://www.w3.org/2000/svg">
<path d="M35.709 32.039V30.359H34.029C33.9805 30.0064 33.8063 29.6832 33.5384 29.4489C33.2705 29.2146 32.9269 29.085 32.571 29.084C31.823 29.084 31.213 29.638 31.113 30.359H29.433V32.039C29.0811 32.0879 28.7587 32.2624 28.5254 32.5304C28.2921 32.7984 28.1635 33.1417 28.1635 33.497C28.1635 33.8523 28.2921 34.1956 28.5254 34.4636C28.7587 34.7316 29.0811 34.9061 29.433 34.955V36.635H31.113C31.223 37.345 31.828 37.888 32.566 37.888C32.9184 37.8869 33.2589 37.7601 33.5261 37.5305C33.7934 37.3008 33.9699 36.9832 34.024 36.635H35.704V34.955C36.0547 34.9043 36.3754 34.7291 36.6075 34.4614C36.8396 34.1936 36.9676 33.8513 36.968 33.497C36.9688 33.1431 36.8419 32.8009 36.6106 32.533C36.3793 32.2652 36.0592 32.0898 35.709 32.039Z" fill="#0D395F"/>
<path d="M0 0V33.065C0 33.303 0.0609999 39.058 4.086 46.753C7.773 53.805 15.651 63.878 32.233 71.833L32.583 72L32.931 71.834C49.531 63.878 57.397 53.799 61.073 46.753C65.087 39.058 65.131 33.303 65.131 33.065V0H0ZM63.512 33.06C63.512 33.116 63.452 38.732 59.587 46.094C56.044 52.847 48.482 62.488 32.582 70.199C16.693 62.493 9.125 52.847 5.572 46.094C1.696 38.731 1.624 33.115 1.624 33.06V1.625H63.512V33.06Z" fill="#0D395F"/>
<path d="M21.15 34.55L17.636 34.556V34.567C16.881 34.561 16.183 35.033 15.978 35.753C15.784 36.441 16.216 37.151 16.942 37.333C17.525 37.483 18.118 37.156 18.273 36.602C18.3146 36.4512 18.311 36.2915 18.2626 36.1427C18.2143 35.9939 18.1233 35.8626 18.001 35.765L22.371 35.759V33.829C24.715 33.563 26.584 31.779 26.871 29.527H28.712V28.917C28.712 26.9 30.448 25.264 32.582 25.264C34.717 25.264 36.452 26.905 36.452 28.918V29.528H38.215C38.503 31.768 40.36 33.547 42.695 33.813L42.7 35.793H46.908C46.7858 35.8962 46.6975 36.0339 46.6549 36.188C46.6123 36.3422 46.6172 36.5057 46.669 36.657C46.858 37.2 47.473 37.494 48.044 37.311C48.76 37.084 49.148 36.358 48.909 35.681C48.693 35.055 48.111 34.645 47.468 34.584V34.572H43.914L43.909 32.627H43.299C41.148 32.627 39.396 30.963 39.396 28.917V28.307H37.627C37.311 25.907 35.171 24.045 32.582 24.045C29.993 24.045 27.848 25.907 27.537 28.308H25.697V28.918C25.697 30.974 23.933 32.648 21.766 32.648H21.15V34.55Z" fill="#0D395F"/>
<path d="M30.542 55.38C30.037 55.38 29.699 55.806 29.699 56.466C29.699 57.086 30.021 57.475 30.542 57.475C30.836 57.475 31.063 57.375 31.324 57.137C31.384 56.915 31.401 56.777 31.401 56.554C31.401 55.834 31.063 55.379 30.541 55.379L30.542 55.38Z" fill="#0D395F"/>
<path d="M32.516 47.44C25.802 47.44 20.358 52.884 20.358 59.598V59.925C23.706 62.548 27.731 65.098 32.588 67.421C37.378 65.131 41.358 62.62 44.674 60.036V59.593C44.668 52.884 39.229 47.44 32.516 47.44ZM28.186 60.13H25.64V59.415H26.571V55.85C26.488 55.9 26.244 56.061 26.022 56.16C25.8223 56.2571 25.6188 56.3461 25.412 56.427L25.197 55.956L26.81 54.825H27.436V59.421H28.185V60.131L28.186 60.13ZM31.163 59.249C30.658 59.726 29.96 60.136 29.278 60.286L28.834 59.77C29.073 59.726 29.234 59.67 29.455 59.565C30.054 59.288 30.631 58.839 30.958 58.301C31.018 58.201 31.085 58.062 31.141 57.935C30.909 58.0707 30.6448 58.1415 30.376 58.14C29.466 58.14 28.773 57.436 28.773 56.482C28.773 55.473 29.549 54.719 30.575 54.719C31.734 54.719 32.322 55.623 32.322 56.704C32.316 57.664 31.913 58.544 31.163 59.249ZM35.043 59.947C34.673 60.141 34.19 60.252 33.702 60.252C33.458 60.252 33.358 60.247 33.12 60.192L32.942 59.554C33.209 59.637 33.364 59.664 33.613 59.664C34.495 59.664 35.138 59.132 35.138 58.412C35.138 57.813 34.738 57.502 34.146 57.502C33.802 57.502 33.458 57.563 33.081 57.708L33.331 54.886H35.836L35.703 55.612H34.123L34.001 56.876C34.212 56.843 34.273 56.837 34.439 56.837C35.343 56.837 36.075 57.397 36.075 58.334C36.075 59.016 35.669 59.631 35.043 59.947ZM38.913 59.947C38.542 60.141 38.06 60.252 37.572 60.252C37.328 60.252 37.228 60.247 36.99 60.192L36.812 59.554C37.078 59.637 37.234 59.664 37.483 59.664C38.365 59.664 39.008 59.132 39.008 58.412C39.008 57.813 38.608 57.502 38.021 57.502C37.677 57.502 37.333 57.563 36.956 57.708L37.195 54.886H39.7L39.567 55.612H37.987L37.864 56.876C38.075 56.843 38.136 56.837 38.302 56.837C39.206 56.837 39.938 57.397 39.938 58.334C39.938 59.016 39.534 59.631 38.913 59.947Z" fill="#0D395F"/>
<path d="M19.393 13.832H16.953V16.272H19.709C19.6766 15.4509 19.5709 14.6343 19.393 13.832Z" fill="#0D395F"/>
<path d="M19.033 21.14H16.953V23.873C17.741 23.54 18.506 22.571 19.033 21.14Z" fill="#0D395F"/>
<path d="M16.954 9.88V12.613H19.033C18.506 11.183 17.741 10.213 16.953 9.88H16.954Z" fill="#0D395F"/>
<path d="M19.709 17.486H16.954V19.926H19.393C19.559 19.188 19.67 18.373 19.709 17.486Z" fill="#0D395F"/>
<path d="M22.07 12.613C21.3338 11.6252 20.3567 10.8427 19.232 10.34C19.665 10.966 20.031 11.737 20.313 12.613H22.07Z" fill="#0D395F"/>
<path d="M20.923 16.266H23.463C23.3905 15.4198 23.167 14.5934 22.803 13.826H20.629C20.79 14.592 20.889 15.412 20.923 16.266Z" fill="#0D395F"/>
<path d="M19.227 23.412C20.3517 22.9093 21.3288 22.1267 22.065 21.139H20.308C20.025 22.015 19.659 22.786 19.227 23.412Z" fill="#0D395F"/>
<path d="M20.63 19.925H22.802C23.166 19.1576 23.3895 18.3312 23.462 17.485H20.923C20.8939 18.3052 20.7966 19.1214 20.63 19.925Z" fill="#0D395F"/>
<path d="M10.617 21.14C11.3533 22.1274 12.3304 22.9096 13.455 23.412C13.023 22.786 12.657 22.015 12.375 21.139L10.617 21.14Z" fill="#0D395F"/>
<path d="M11.759 17.486H9.219C9.292 18.351 9.525 19.171 9.879 19.926H12.053C11.892 19.16 11.793 18.346 11.759 17.486Z" fill="#0D395F"/>
<path d="M13.455 10.34C12.3303 10.8427 11.3532 11.6252 10.617 12.613H12.374C12.657 11.737 13.023 10.966 13.455 10.34Z" fill="#0D395F"/>
<path d="M12.053 13.832H9.879C9.5143 14.5991 9.29073 15.4256 9.219 16.272H11.759C11.792 15.412 11.892 14.592 12.053 13.832Z" fill="#0D395F"/>
<path d="M15.734 23.878V21.145H13.654C14.176 22.57 14.941 23.54 15.734 23.878Z" fill="#0D395F"/>
<path d="M4.601 36.701C5.455 40.427 7.512 46.16 12.435 52.208V44.297H52.524L52.518 52.48C57.597 46.331 59.687 40.482 60.546 36.701C61.15 34.057 61.15 32.427 61.15 32.427V3.987H3.986V32.427C3.986 32.427 3.992 34.063 4.601 36.701ZM54.509 41.724C54.481 41.714 54.448 41.697 54.419 41.691H54.365C53.455 41.974 53.4 43.021 53.4 43.021V43.493H52.208V42.755C52.208 42.755 52.152 41.763 51.243 41.491H51.188C50.278 41.763 50.223 42.755 50.223 42.755V43.493H48.798V42.755C48.798 42.755 48.743 41.763 47.828 41.491H47.773C46.863 41.763 46.808 42.755 46.808 42.755V43.493H45.416V42.755C45.416 42.755 45.361 41.763 44.452 41.491H44.396C43.487 41.763 43.426 42.755 43.426 42.755V43.493H41.98V42.755C41.98 42.755 41.925 41.763 41.01 41.491H40.954C40.045 41.763 39.99 42.755 39.99 42.755V43.493H38.58V42.755C38.58 42.755 38.524 41.763 37.615 41.491H37.56C36.65 41.763 36.59 42.755 36.59 42.755V43.493H35.198V42.755C35.198 42.755 35.142 41.763 34.233 41.491H34.178C33.268 41.763 33.213 42.755 33.213 42.755V43.493H31.766V42.755C31.766 42.755 31.711 41.763 30.801 41.491H30.746C29.836 41.763 29.781 42.755 29.781 42.755V43.493H28.395V42.755C28.395 42.755 28.34 41.763 27.431 41.491H27.375C26.466 41.763 26.411 42.755 26.411 42.755V43.493H24.947V42.755C24.947 42.755 24.891 41.763 23.977 41.491H23.921C23.012 41.763 22.957 42.755 22.957 42.755V43.493H21.565V42.755C21.565 42.755 21.51 41.763 20.601 41.491H20.54C19.63 41.763 19.575 42.755 19.575 42.755V43.493H18.145V42.755C18.145 42.755 18.089 41.763 17.18 41.491H17.124C16.215 41.763 16.16 42.755 16.16 42.755V43.493H14.774V42.755C14.774 42.755 14.718 41.763 13.809 41.491H13.754C12.844 41.763 12.789 42.755 12.789 42.755V43.493H11.597V43.022C11.597 43.022 11.542 41.979 10.632 41.691H10.577V41.037H54.524V41.724H54.509ZM49.075 13.5C50.655 10.628 54.165 10.572 54.165 10.572C54.215 10.517 54.165 19.304 54.165 19.304C54.165 19.304 50.655 19.36 49.075 22.232V13.5ZM42.745 10.495C42.745 10.495 46.22 10.55 47.778 13.422V22.154C46.215 19.282 42.744 19.227 42.744 19.227C42.744 19.227 42.695 10.44 42.745 10.495ZM40.128 11.321H41.43V20.025L48.482 24.161L55.529 20.031V11.321H56.831V20.773L48.482 25.669L40.127 20.773L40.128 11.321ZM32.554 22.464C35.265 22.464 37.766 24.377 38.714 26.772L40.904 26.767V28.862C40.904 30.176 42.229 31.096 43.859 31.096H45.444L45.45 33.076L50.223 33.07L50.229 38.459H55.883V39.879H9.175V38.459H14.725V33.103L19.642 33.109V31.096H21.128C22.764 31.096 24.083 30.176 24.083 28.862L24.078 26.756H26.328C27.276 24.377 29.854 22.464 32.554 22.464ZM16.344 8.51C20.956 8.51 24.71 12.264 24.71 16.876C24.71 21.489 20.956 25.242 16.344 25.242C11.731 25.242 7.978 21.489 7.978 16.876C7.972 12.263 11.726 8.51 16.344 8.51Z" fill="#0D395F"/>
<path d="M13.294 19.925H15.734V17.485H12.979C13.012 18.373 13.123 19.188 13.295 19.925H13.294Z" fill="#0D395F"/>
<path d="M15.734 9.88C14.941 10.212 14.176 11.182 13.654 12.613H15.734V9.88Z" fill="#0D395F"/>
<path d="M15.734 16.266V13.826H13.294C13.1115 14.6275 13.0056 15.4445 12.978 16.266H15.734Z" fill="#0D395F"/>
</svg>
